<svg width="48" height="48" viewBox="0 0 48 48" fill="none" xmlns="http://www.w3.org/2000/svg">
  <rect width="48" height="48" rx="24" fill="#FFC107"/>
  <path d="M12 16C12 13.7909 13.7909 12 16 12H32C34.2091 12 36 13.7909 36 16V32C36 34.2091 34.2091 36 32 36H16C13.7909 36 12 34.2091 12 32V16Z" fill="#FFC107"/>
  <path d="M16 14C14.8954 14 14 14.8954 14 16V32C14 33.1046 14.8954 34 16 34H32C33.1046 34 34 33.1046 34 32V16C34 14.8954 33.1046 14 32 14H16Z" fill="#FFD54F"/>
  <text x="24" y="28" text-anchor="middle" font-family="Arial, sans-serif" font-size="16" font-weight="bold" fill="#FF8F00">M</text>
  <text x="24" y="42" text-anchor="middle" font-family="Arial, sans-serif" font-size="8" font-weight="bold" fill="#FF8F00">MoMo</text>
</svg> 